<mxfile host="Electron" modified="2023-04-15T12:35:41.623Z" agent="Mozilla/5.0 (Windows NT 10.0; Win64; x64) AppleWebKit/537.36 (KHTML, like Gecko) draw.io/21.1.2 Chrome/106.0.5249.199 Electron/21.4.3 Safari/537.36" etag="aNEH3cilmnALhEfhfJo_" version="21.1.2" type="device">
  <diagram name="Page-1" id="2cc2dc42-3aac-f2a9-1cec-7a8b7cbee084">
    <mxGraphModel dx="1727" dy="1873" grid="1" gridSize="10" guides="1" tooltips="1" connect="1" arrows="1" fold="1" page="1" pageScale="1" pageWidth="1100" pageHeight="850" background="none" math="0" shadow="0">
      <root>
        <mxCell id="0" />
        <mxCell id="1" parent="0" />
        <mxCell id="7026571954dc6520-1" value="" style="strokeWidth=1;shadow=0;dashed=0;align=center;html=1;shape=mxgraph.mockup.containers.browserWindow;rSize=0;strokeColor=#666666;mainText=,;recursiveResize=0;rounded=0;labelBackgroundColor=none;fontFamily=Verdana;fontSize=12;container=1;" parent="1" vertex="1">
          <mxGeometry x="10" y="-200" width="1150" height="1690" as="geometry" />
        </mxCell>
        <mxCell id="w-uies3jlZHsXsL9M4cH-7" value="" style="shape=table;startSize=0;container=1;collapsible=0;childLayout=tableLayout;fontSize=16;" vertex="1" parent="7026571954dc6520-1">
          <mxGeometry x="410" y="910" width="382" height="175" as="geometry" />
        </mxCell>
        <mxCell id="w-uies3jlZHsXsL9M4cH-8" value="" style="shape=tableRow;horizontal=0;startSize=0;swimlaneHead=0;swimlaneBody=0;strokeColor=inherit;top=0;left=0;bottom=0;right=0;collapsible=0;dropTarget=0;fillColor=none;points=[[0,0.5],[1,0.5]];portConstraint=eastwest;fontSize=16;" vertex="1" parent="w-uies3jlZHsXsL9M4cH-7">
          <mxGeometry width="382" height="175" as="geometry" />
        </mxCell>
        <mxCell id="w-uies3jlZHsXsL9M4cH-9" value="" style="shape=partialRectangle;html=1;whiteSpace=wrap;connectable=0;strokeColor=inherit;overflow=hidden;fillColor=none;top=0;left=0;bottom=0;right=0;pointerEvents=1;fontSize=16;" vertex="1" parent="w-uies3jlZHsXsL9M4cH-8">
          <mxGeometry width="127" height="175" as="geometry">
            <mxRectangle width="127" height="175" as="alternateBounds" />
          </mxGeometry>
        </mxCell>
        <mxCell id="w-uies3jlZHsXsL9M4cH-10" value="" style="shape=partialRectangle;html=1;whiteSpace=wrap;connectable=0;strokeColor=inherit;overflow=hidden;fillColor=none;top=0;left=0;bottom=0;right=0;pointerEvents=1;fontSize=16;" vertex="1" parent="w-uies3jlZHsXsL9M4cH-8">
          <mxGeometry x="127" width="128" height="175" as="geometry">
            <mxRectangle width="128" height="175" as="alternateBounds" />
          </mxGeometry>
        </mxCell>
        <mxCell id="w-uies3jlZHsXsL9M4cH-11" value="" style="shape=partialRectangle;html=1;whiteSpace=wrap;connectable=0;strokeColor=inherit;overflow=hidden;fillColor=none;top=0;left=0;bottom=0;right=0;pointerEvents=1;fontSize=16;" vertex="1" parent="w-uies3jlZHsXsL9M4cH-8">
          <mxGeometry x="255" width="127" height="175" as="geometry">
            <mxRectangle width="127" height="175" as="alternateBounds" />
          </mxGeometry>
        </mxCell>
        <mxCell id="mRazqspsC4Ma7sNljstP-4" value="Shetler Name" style="text;html=1;strokeColor=none;fillColor=none;align=center;verticalAlign=middle;whiteSpace=wrap;rounded=0;fontSize=14;fontStyle=1" parent="7026571954dc6520-1" vertex="1">
          <mxGeometry x="400" y="1120" width="120" height="55" as="geometry" />
        </mxCell>
        <mxCell id="hSg1DGhJZ1upNgLN3jy0-19" value="Button&amp;nbsp;" style="strokeWidth=1;shadow=0;dashed=0;align=center;html=1;shape=mxgraph.mockup.buttons.button;strokeColor=#666666;mainText=;buttonStyle=round;fontSize=17;fontStyle=0;fillColor=none;whiteSpace=wrap;rounded=0;labelBackgroundColor=none;movable=1;resizable=1;rotatable=1;deletable=1;editable=1;locked=0;connectable=1;" parent="7026571954dc6520-1" vertex="1">
          <mxGeometry x="414" y="1425" width="140" height="50" as="geometry" />
        </mxCell>
        <mxCell id="hSg1DGhJZ1upNgLN3jy0-23" value="" style="shape=image;verticalLabelPosition=bottom;labelBackgroundColor=default;verticalAlign=top;aspect=fixed;imageAspect=0;image=data:image/png,iVBORw0KGgoAAAANSUhEUgAAAMgAAABBCAYAAACU5+uOAAAAAXNSR0IArs4c6QAAAARnQU1BAACxjwv8YQUAAAAJcEhZcwAADsMAAA7DAcdvqGQAAAUySURBVHhe7d2/LzRBGAfwed9KROJHp+IPkNBIdFQkEgkKGkGQKO9foJKoJCoJIToKR4SIiqjQ0GmEaHR+hOjE65l35s3uvrOze7d7Zubm+0k2uzuRs8+8vjuze3f7/vr6xgBA6bdYA4ACAgKggYAAaCAgABoICIAGAgKggYAAaCAgABoICIAGAgKggYAAaCAgABoICIAGAgKggYAAaCAgABoICIDGf98onJubY6enp2Lvr7e3N/b5+cmurq5ES3oNDQ2so6ND7DHW2trKF6mnp0dsMVZfXx/62Z/iY81EVff7+zurq6vj2y8vL2XVn0W0r6Kor6h/VaL9HtXS0qJ9bSUKiHR3d0dhsWb5Lubr+4/pa319XRxh/nysmdhWt6klqb9DAZmYmFC+iOmlu7tbHGH+fKyZ2Fq3qSWuv0NTLBr65ZBLw9Hk5CTfpqE2blgLTheC7u/v+RKHhjo5HO7u7vI1kb+Lhva9vT3eRvvPz898O28+1kzKqVuHaqOlFPS7sk7hglMu2qbXS3rdkvqbx0SgFFETLZU+g6VRKBT+Hc/3wYvWfPlYM7GtblOS+tvqu1jBM1nWM40rfKzZpKT+DgWE7mBIwW1TaCiUjo6OxFa+fKyZ2Fa3KUn9HQpIW1ub2GL/bvWZFEx3TU2N2MqXjzUT2+o2Jam/QwEp9SLrJ52cnIgttYWFBdbX1yf20nO55uPjY9bV1cVub29FS3o2122Kqr+r5p305eVl9vDwIPb8sLa2xs7Pz1ljY6NogbyFAhJ3+9J2W1tb7PHxkY2Pj4uW9Fyt+enpiW1vb7Pe3l7W1NQkWtNzte6f5swIEv1IRNDOzg5fz87O8nW10NVM4SBTU1N8Ddmp+tv5KRadSQ8PD8s+k7pqY2ODX1yPjo6KFqgE5wNCZ1K6TTk0NCRaqh9dlNO1R39/v2iBSnEmIO3t7WIrrFgs8jPpyMiIaKkecTXL6dX09DRfQz5U/R0bkOD9YRuojoemV3Srk86keUyvXKiZbG5usubmZj6tzINtdZui6ofYgOg+V2+LlZUVvh4eHubrrFyo+fLykt3c3LCBgQHRkp0LdZvizBRLlW46k1bzhaqq5tXVVb6emZnha8hPSSOIbaJnObpQpTNpNV+oqs7s+/v7fHrV2dkpWiAvqv4OBSTpow02kR+vyHqh6lLNhN4QHRsbE3vlc61uU5wZQaLoAvXi4iK3C1VXUM2Li4tiDyrN2RGE5DHN8LFmghEkHWdHEICfEApI8BtVvtwb97Fm4mvdpQoF5PX1VWzZd29c9zCELHysmdhctymq/nZmilXJPxZb+VizSU4HBMCEUEDkoxlp+fj4EK3m0GM55fEEpwR58rFmYlvdpiT1dygg9IQHGmZoqa2tFa3m0AHL46nUI3B8rJnYVrcpSf0dCkjwYm1+fp4/dY6+ZXV2diZazYn76HdWPtZM4uo+ODjgfyw+UvV37KNH06Dbg9E7ILQvbxvSWarUsyB9+Uk+hkYmmxQKBba0tMS38+RjzaTUupOk+Y67nMqolNNv5Sqpv/nzFYXg4yhtW4rFojjKfPlYM7G5blOLqr9DIwglmJJMgommbVooadRWyYvHOPRg4Uq8oeVjzURXt/ydwY+jUPv19bXYq06q/v7vP9BJK/pZnuBQFUcOscEpiYp8bfmPSD8/ODjI20zyseY4aWon0T4rV7D/aE37WaTt77IDAuADvFEIoIGAAGggIAAaCAiABgICoIGAAGggIAAaCAiABgICoIGAAGggIAAaCAhALMb+AAnJ3n0YZFDxAAAAAElFTkSuQmCC;movable=1;resizable=1;rotatable=1;deletable=1;editable=1;locked=0;connectable=1;" parent="7026571954dc6520-1" vertex="1">
          <mxGeometry x="757.5" y="1350" width="200" height="65" as="geometry" />
        </mxCell>
        <mxCell id="hSg1DGhJZ1upNgLN3jy0-24" value="" style="shape=image;verticalLabelPosition=bottom;labelBackgroundColor=default;verticalAlign=top;aspect=fixed;imageAspect=0;image=data:image/png,iVBORw0KGgoAAAANSUhEUgAAAMgAAABBCAYAAACU5+uOAAAAAXNSR0IArs4c6QAAAARnQU1BAACxjwv8YQUAAAAJcEhZcwAADsMAAA7DAcdvqGQAAAUySURBVHhe7d2/LzRBGAfwed9KROJHp+IPkNBIdFQkEgkKGkGQKO9foJKoJCoJIToKR4SIiqjQ0GmEaHR+hOjE65l35s3uvrOze7d7Zubm+0k2uzuRs8+8vjuze3f7/vr6xgBA6bdYA4ACAgKggYAAaCAgABoICIAGAgKggYAAaCAgABoICIAGAgKggYAAaCAgABoICIAGAgKggYAAaCAgABoICIDGf98onJubY6enp2Lvr7e3N/b5+cmurq5ES3oNDQ2so6ND7DHW2trKF6mnp0dsMVZfXx/62Z/iY81EVff7+zurq6vj2y8vL2XVn0W0r6Kor6h/VaL9HtXS0qJ9bSUKiHR3d0dhsWb5Lubr+4/pa319XRxh/nysmdhWt6klqb9DAZmYmFC+iOmlu7tbHGH+fKyZ2Fq3qSWuv0NTLBr65ZBLw9Hk5CTfpqE2blgLTheC7u/v+RKHhjo5HO7u7vI1kb+Lhva9vT3eRvvPz898O28+1kzKqVuHaqOlFPS7sk7hglMu2qbXS3rdkvqbx0SgFFETLZU+g6VRKBT+Hc/3wYvWfPlYM7GtblOS+tvqu1jBM1nWM40rfKzZpKT+DgWE7mBIwW1TaCiUjo6OxFa+fKyZ2Fa3KUn9HQpIW1ub2GL/bvWZFEx3TU2N2MqXjzUT2+o2Jam/QwEp9SLrJ52cnIgttYWFBdbX1yf20nO55uPjY9bV1cVub29FS3o2122Kqr+r5p305eVl9vDwIPb8sLa2xs7Pz1ljY6NogbyFAhJ3+9J2W1tb7PHxkY2Pj4uW9Fyt+enpiW1vb7Pe3l7W1NQkWtNzte6f5swIEv1IRNDOzg5fz87O8nW10NVM4SBTU1N8Ddmp+tv5KRadSQ8PD8s+k7pqY2ODX1yPjo6KFqgE5wNCZ1K6TTk0NCRaqh9dlNO1R39/v2iBSnEmIO3t7WIrrFgs8jPpyMiIaKkecTXL6dX09DRfQz5U/R0bkOD9YRuojoemV3Srk86keUyvXKiZbG5usubmZj6tzINtdZui6ofYgOg+V2+LlZUVvh4eHubrrFyo+fLykt3c3LCBgQHRkp0LdZvizBRLlW46k1bzhaqq5tXVVb6emZnha8hPSSOIbaJnObpQpTNpNV+oqs7s+/v7fHrV2dkpWiAvqv4OBSTpow02kR+vyHqh6lLNhN4QHRsbE3vlc61uU5wZQaLoAvXi4iK3C1VXUM2Li4tiDyrN2RGE5DHN8LFmghEkHWdHEICfEApI8BtVvtwb97Fm4mvdpQoF5PX1VWzZd29c9zCELHysmdhctymq/nZmilXJPxZb+VizSU4HBMCEUEDkoxlp+fj4EK3m0GM55fEEpwR58rFmYlvdpiT1dygg9IQHGmZoqa2tFa3m0AHL46nUI3B8rJnYVrcpSf0dCkjwYm1+fp4/dY6+ZXV2diZazYn76HdWPtZM4uo+ODjgfyw+UvV37KNH06Dbg9E7ILQvbxvSWarUsyB9+Uk+hkYmmxQKBba0tMS38+RjzaTUupOk+Y67nMqolNNv5Sqpv/nzFYXg4yhtW4rFojjKfPlYM7G5blOLqr9DIwglmJJMgommbVooadRWyYvHOPRg4Uq8oeVjzURXt/ydwY+jUPv19bXYq06q/v7vP9BJK/pZnuBQFUcOscEpiYp8bfmPSD8/ODjI20zyseY4aWon0T4rV7D/aE37WaTt77IDAuADvFEIoIGAAGggIAAaCAiABgICoIGAAGggIAAaCAiABgICoIGAAGggIAAaCAhALMb+AAnJ3n0YZFDxAAAAAElFTkSuQmCC;movable=1;resizable=1;rotatable=1;deletable=1;editable=1;locked=0;connectable=1;" parent="7026571954dc6520-1" vertex="1">
          <mxGeometry x="415" y="1340" width="200" height="65" as="geometry" />
        </mxCell>
        <mxCell id="_4hZOMIkI4JRDynTKEF_-14" value="Button" style="strokeWidth=1;shadow=0;dashed=0;align=center;html=1;shape=mxgraph.mockup.buttons.button;strokeColor=#666666;mainText=;buttonStyle=round;fontSize=17;fontStyle=0;fillColor=none;whiteSpace=wrap;rounded=0;labelBackgroundColor=none;" parent="7026571954dc6520-1" vertex="1">
          <mxGeometry x="857.5" y="1570" width="140" height="50" as="geometry" />
        </mxCell>
        <mxCell id="mRazqspsC4Ma7sNljstP-2" value="&lt;font style=&quot;font-size: 19px;&quot;&gt;Title 1&lt;br&gt;&lt;/font&gt;" style="text;html=1;strokeColor=default;fillColor=none;align=center;verticalAlign=middle;whiteSpace=wrap;rounded=0;" parent="7026571954dc6520-1" vertex="1">
          <mxGeometry x="500" y="160" width="335" height="50" as="geometry" />
        </mxCell>
        <mxCell id="w-uies3jlZHsXsL9M4cH-2" value="Check In" style="text;html=1;strokeColor=none;fillColor=none;align=center;verticalAlign=middle;whiteSpace=wrap;rounded=0;fontSize=14;fontStyle=1" vertex="1" parent="7026571954dc6520-1">
          <mxGeometry x="390" y="1270" width="120" height="55" as="geometry" />
        </mxCell>
        <mxCell id="EMS-jT7dY6hnE4moFdB5-117" value="Dashboard" style="text;html=1;strokeColor=none;fillColor=none;align=center;verticalAlign=middle;whiteSpace=wrap;rounded=0;fontColor=#EA2EFF;fontSize=17;" parent="7026571954dc6520-1" vertex="1">
          <mxGeometry x="19.36999999999999" y="629" width="98.75" height="50" as="geometry" />
        </mxCell>
        <mxCell id="w-uies3jlZHsXsL9M4cH-6" value="" style="verticalLabelPosition=bottom;shadow=0;dashed=0;align=center;html=1;verticalAlign=top;strokeWidth=1;shape=mxgraph.mockup.graphics.simpleIcon;strokeColor=#999999;fillColor=#ffffff;rounded=0;labelBackgroundColor=none;fontFamily=Verdana;fontSize=12;fontColor=#000000;" vertex="1" parent="7026571954dc6520-1">
          <mxGeometry x="682" y="945" width="88" height="110" as="geometry" />
        </mxCell>
        <mxCell id="w-uies3jlZHsXsL9M4cH-5" value="" style="verticalLabelPosition=bottom;shadow=0;dashed=0;align=center;html=1;verticalAlign=top;strokeWidth=1;shape=mxgraph.mockup.graphics.simpleIcon;strokeColor=#999999;fillColor=#ffffff;rounded=0;labelBackgroundColor=none;fontFamily=Verdana;fontSize=12;fontColor=#000000;" vertex="1" parent="7026571954dc6520-1">
          <mxGeometry x="557" y="945" width="88" height="110" as="geometry" />
        </mxCell>
        <mxCell id="EMS-jT7dY6hnE4moFdB5-99" value="" style="verticalLabelPosition=bottom;shadow=0;dashed=0;align=center;html=1;verticalAlign=top;strokeWidth=1;shape=mxgraph.mockup.graphics.simpleIcon;strokeColor=#999999;fillColor=#ffffff;rounded=0;labelBackgroundColor=none;fontFamily=Verdana;fontSize=12;fontColor=#000000;" parent="7026571954dc6520-1" vertex="1">
          <mxGeometry x="432" y="945" width="88" height="110" as="geometry" />
        </mxCell>
        <mxCell id="w-uies3jlZHsXsL9M4cH-25" value="Check Out" style="text;html=1;strokeColor=none;fillColor=none;align=center;verticalAlign=middle;whiteSpace=wrap;rounded=0;fontSize=14;fontStyle=1" vertex="1" parent="7026571954dc6520-1">
          <mxGeometry x="730" y="1270" width="120" height="55" as="geometry" />
        </mxCell>
        <mxCell id="w-uies3jlZHsXsL9M4cH-26" value="Shelter ID" style="text;html=1;strokeColor=none;fillColor=none;align=center;verticalAlign=middle;whiteSpace=wrap;rounded=0;fontSize=14;fontStyle=1" vertex="1" parent="7026571954dc6520-1">
          <mxGeometry x="730" y="1120" width="120" height="55" as="geometry" />
        </mxCell>
        <mxCell id="w-uies3jlZHsXsL9M4cH-28" value="Magical Love Penang House" style="text;html=1;points=[];align=left;verticalAlign=top;spacingTop=-4;fontSize=12;fontFamily=Verdana;whiteSpace=wrap;" vertex="1" parent="7026571954dc6520-1">
          <mxGeometry x="415" y="1210" width="240" height="40" as="geometry" />
        </mxCell>
        <mxCell id="w-uies3jlZHsXsL9M4cH-29" value="7564" style="text;html=1;points=[];align=left;verticalAlign=top;spacingTop=-4;fontSize=12;fontFamily=Verdana;whiteSpace=wrap;" vertex="1" parent="7026571954dc6520-1">
          <mxGeometry x="757.5" y="1210" width="240" height="40" as="geometry" />
        </mxCell>
        <mxCell id="3OLsrAhHhxXJNuK36NjF-5" value="View the shelter in detail. Go to Member&#39;s record" style="text;html=1;strokeColor=none;fillColor=none;align=center;verticalAlign=middle;whiteSpace=wrap;rounded=0;fontColor=#EA2EFF;fontSize=17;" parent="7026571954dc6520-1" vertex="1">
          <mxGeometry x="30" y="1415" width="200" height="70" as="geometry" />
        </mxCell>
        <mxCell id="3OLsrAhHhxXJNuK36NjF-6" style="edgeStyle=orthogonalEdgeStyle;rounded=0;orthogonalLoop=1;jettySize=auto;html=1;fillColor=#e1d5e7;strokeColor=#9673a6;" parent="7026571954dc6520-1" source="3OLsrAhHhxXJNuK36NjF-5" target="hSg1DGhJZ1upNgLN3jy0-19" edge="1">
          <mxGeometry relative="1" as="geometry">
            <mxPoint x="1045" y="983.5" as="targetPoint" />
          </mxGeometry>
        </mxCell>
        <mxCell id="_4hZOMIkI4JRDynTKEF_-15" value="Go back to&amp;nbsp;&lt;br&gt;Previou Page" style="text;html=1;strokeColor=none;fillColor=none;align=center;verticalAlign=middle;whiteSpace=wrap;rounded=0;fontColor=#EA2EFF;fontSize=17;" parent="7026571954dc6520-1" vertex="1">
          <mxGeometry x="1070" y="1440" width="77.5" height="70" as="geometry" />
        </mxCell>
        <mxCell id="_4hZOMIkI4JRDynTKEF_-16" value="" style="endArrow=none;html=1;rounded=0;fillColor=#e1d5e7;strokeColor=#9673a6;strokeWidth=2;exitX=1.013;exitY=0.498;exitDx=0;exitDy=0;exitPerimeter=0;" parent="7026571954dc6520-1" source="_4hZOMIkI4JRDynTKEF_-14" target="_4hZOMIkI4JRDynTKEF_-15" edge="1">
          <mxGeometry width="50" height="50" relative="1" as="geometry">
            <mxPoint x="318" y="1300" as="sourcePoint" />
            <mxPoint x="158" y="1285" as="targetPoint" />
          </mxGeometry>
        </mxCell>
        <mxCell id="w-uies3jlZHsXsL9M4cH-36" value="" style="shape=image;verticalLabelPosition=bottom;labelBackgroundColor=default;verticalAlign=top;aspect=fixed;imageAspect=0;image=data:image/png,iVBORw0KGgoAAAANSUhEUgAAAMgAAABBCAYAAACU5+uOAAAAAXNSR0IArs4c6QAAAARnQU1BAACxjwv8YQUAAAAJcEhZcwAADsMAAA7DAcdvqGQAAAUySURBVHhe7d2/LzRBGAfwed9KROJHp+IPkNBIdFQkEgkKGkGQKO9foJKoJCoJIToKR4SIiqjQ0GmEaHR+hOjE65l35s3uvrOze7d7Zubm+0k2uzuRs8+8vjuze3f7/vr6xgBA6bdYA4ACAgKggYAAaCAgABoICIAGAgKggYAAaCAgABoICIAGAgKggYAAaCAgABoICIAGAgKggYAAaCAgABoICIDGf98onJubY6enp2Lvr7e3N/b5+cmurq5ES3oNDQ2so6ND7DHW2trKF6mnp0dsMVZfXx/62Z/iY81EVff7+zurq6vj2y8vL2XVn0W0r6Kor6h/VaL9HtXS0qJ9bSUKiHR3d0dhsWb5Lubr+4/pa319XRxh/nysmdhWt6klqb9DAZmYmFC+iOmlu7tbHGH+fKyZ2Fq3qSWuv0NTLBr65ZBLw9Hk5CTfpqE2blgLTheC7u/v+RKHhjo5HO7u7vI1kb+Lhva9vT3eRvvPz898O28+1kzKqVuHaqOlFPS7sk7hglMu2qbXS3rdkvqbx0SgFFETLZU+g6VRKBT+Hc/3wYvWfPlYM7GtblOS+tvqu1jBM1nWM40rfKzZpKT+DgWE7mBIwW1TaCiUjo6OxFa+fKyZ2Fa3KUn9HQpIW1ub2GL/bvWZFEx3TU2N2MqXjzUT2+o2Jam/QwEp9SLrJ52cnIgttYWFBdbX1yf20nO55uPjY9bV1cVub29FS3o2122Kqr+r5p305eVl9vDwIPb8sLa2xs7Pz1ljY6NogbyFAhJ3+9J2W1tb7PHxkY2Pj4uW9Fyt+enpiW1vb7Pe3l7W1NQkWtNzte6f5swIEv1IRNDOzg5fz87O8nW10NVM4SBTU1N8Ddmp+tv5KRadSQ8PD8s+k7pqY2ODX1yPjo6KFqgE5wNCZ1K6TTk0NCRaqh9dlNO1R39/v2iBSnEmIO3t7WIrrFgs8jPpyMiIaKkecTXL6dX09DRfQz5U/R0bkOD9YRuojoemV3Srk86keUyvXKiZbG5usubmZj6tzINtdZui6ofYgOg+V2+LlZUVvh4eHubrrFyo+fLykt3c3LCBgQHRkp0LdZvizBRLlW46k1bzhaqq5tXVVb6emZnha8hPSSOIbaJnObpQpTNpNV+oqs7s+/v7fHrV2dkpWiAvqv4OBSTpow02kR+vyHqh6lLNhN4QHRsbE3vlc61uU5wZQaLoAvXi4iK3C1VXUM2Li4tiDyrN2RGE5DHN8LFmghEkHWdHEICfEApI8BtVvtwb97Fm4mvdpQoF5PX1VWzZd29c9zCELHysmdhctymq/nZmilXJPxZb+VizSU4HBMCEUEDkoxlp+fj4EK3m0GM55fEEpwR58rFmYlvdpiT1dygg9IQHGmZoqa2tFa3m0AHL46nUI3B8rJnYVrcpSf0dCkjwYm1+fp4/dY6+ZXV2diZazYn76HdWPtZM4uo+ODjgfyw+UvV37KNH06Dbg9E7ILQvbxvSWarUsyB9+Uk+hkYmmxQKBba0tMS38+RjzaTUupOk+Y67nMqolNNv5Sqpv/nzFYXg4yhtW4rFojjKfPlYM7G5blOLqr9DIwglmJJMgommbVooadRWyYvHOPRg4Uq8oeVjzURXt/ydwY+jUPv19bXYq06q/v7vP9BJK/pZnuBQFUcOscEpiYp8bfmPSD8/ODjI20zyseY4aWon0T4rV7D/aE37WaTt77IDAuADvFEIoIGAAGggIAAaCAiABgICoIGAAGggIAAaCAiABgICoIGAAGggIAAaCAhALMb+AAnJ3n0YZFDxAAAAAElFTkSuQmCC;" vertex="1" parent="7026571954dc6520-1">
          <mxGeometry x="420" y="433.75" width="200" height="65" as="geometry" />
        </mxCell>
        <mxCell id="w-uies3jlZHsXsL9M4cH-37" value="First Name" style="text;html=1;strokeColor=none;fillColor=none;align=center;verticalAlign=middle;whiteSpace=wrap;rounded=0;fontSize=14;fontStyle=1" vertex="1" parent="7026571954dc6520-1">
          <mxGeometry x="400" y="280" width="120" height="55" as="geometry" />
        </mxCell>
        <mxCell id="w-uies3jlZHsXsL9M4cH-38" value="&lt;font style=&quot;font-size: 14px;&quot;&gt;email&lt;/font&gt;" style="text;html=1;strokeColor=none;fillColor=none;align=center;verticalAlign=middle;whiteSpace=wrap;rounded=0;fontSize=14;fontStyle=1" vertex="1" parent="7026571954dc6520-1">
          <mxGeometry x="672.5" y="512.5" width="120" height="55" as="geometry" />
        </mxCell>
        <mxCell id="w-uies3jlZHsXsL9M4cH-39" value="&lt;font style=&quot;font-size: 14px;&quot;&gt;Birthday&lt;/font&gt;" style="text;html=1;strokeColor=none;fillColor=none;align=center;verticalAlign=middle;whiteSpace=wrap;rounded=0;fontSize=14;fontStyle=1" vertex="1" parent="7026571954dc6520-1">
          <mxGeometry x="390" y="378.75" width="120" height="55" as="geometry" />
        </mxCell>
        <mxCell id="w-uies3jlZHsXsL9M4cH-40" value="Phone number" style="text;html=1;strokeColor=none;fillColor=none;align=center;verticalAlign=middle;whiteSpace=wrap;rounded=0;fontSize=14;fontStyle=1" vertex="1" parent="7026571954dc6520-1">
          <mxGeometry x="700" y="390" width="120" height="55" as="geometry" />
        </mxCell>
        <mxCell id="w-uies3jlZHsXsL9M4cH-41" value="IC Number" style="text;html=1;strokeColor=none;fillColor=none;align=center;verticalAlign=middle;whiteSpace=wrap;rounded=0;fontSize=14;fontStyle=1" vertex="1" parent="7026571954dc6520-1">
          <mxGeometry x="397" y="507.5" width="120" height="55" as="geometry" />
        </mxCell>
        <mxCell id="w-uies3jlZHsXsL9M4cH-42" value="+608975474" style="text;html=1;strokeColor=none;fillColor=none;align=center;verticalAlign=middle;whiteSpace=wrap;rounded=0;fontSize=14;" vertex="1" parent="7026571954dc6520-1">
          <mxGeometry x="690" y="438.75" width="120" height="55" as="geometry" />
        </mxCell>
        <mxCell id="w-uies3jlZHsXsL9M4cH-43" value="Last Name" style="text;html=1;strokeColor=none;fillColor=none;align=center;verticalAlign=middle;whiteSpace=wrap;rounded=0;fontSize=14;fontStyle=1" vertex="1" parent="7026571954dc6520-1">
          <mxGeometry x="689.75" y="280" width="120" height="55" as="geometry" />
        </mxCell>
        <mxCell id="w-uies3jlZHsXsL9M4cH-44" value="&lt;font style=&quot;font-size: 14px;&quot;&gt;Phill&lt;/font&gt;" style="text;html=1;strokeColor=none;fillColor=none;align=center;verticalAlign=middle;whiteSpace=wrap;rounded=0;fontSize=14;" vertex="1" parent="7026571954dc6520-1">
          <mxGeometry x="377" y="335" width="120" height="55" as="geometry" />
        </mxCell>
        <mxCell id="w-uies3jlZHsXsL9M4cH-45" value="&lt;font style=&quot;font-size: 14px;&quot;&gt;Bromlin&lt;/font&gt;" style="text;html=1;strokeColor=none;fillColor=none;align=center;verticalAlign=middle;whiteSpace=wrap;rounded=0;fontSize=14;" vertex="1" parent="7026571954dc6520-1">
          <mxGeometry x="677.5" y="335" width="120" height="55" as="geometry" />
        </mxCell>
        <mxCell id="w-uies3jlZHsXsL9M4cH-46" value="Phil2like@golf.com" style="text;html=1;strokeColor=none;fillColor=none;align=center;verticalAlign=middle;whiteSpace=wrap;rounded=0;fontSize=14;" vertex="1" parent="7026571954dc6520-1">
          <mxGeometry x="710" y="567.5" width="120" height="55" as="geometry" />
        </mxCell>
        <mxCell id="w-uies3jlZHsXsL9M4cH-47" value="UMN7564586" style="text;html=1;strokeColor=none;fillColor=none;align=center;verticalAlign=middle;whiteSpace=wrap;rounded=0;fontSize=14;" vertex="1" parent="7026571954dc6520-1">
          <mxGeometry x="405" y="562.5" width="120" height="55" as="geometry" />
        </mxCell>
        <mxCell id="w-uies3jlZHsXsL9M4cH-48" value="&lt;font style=&quot;font-size: 14px;&quot;&gt;Registred Date&lt;/font&gt;" style="text;html=1;strokeColor=none;fillColor=none;align=center;verticalAlign=middle;whiteSpace=wrap;rounded=0;fontSize=14;fontStyle=1" vertex="1" parent="7026571954dc6520-1">
          <mxGeometry x="408" y="640" width="120" height="55" as="geometry" />
        </mxCell>
        <mxCell id="w-uies3jlZHsXsL9M4cH-49" value="" style="shape=image;verticalLabelPosition=bottom;labelBackgroundColor=default;verticalAlign=top;aspect=fixed;imageAspect=0;image=data:image/png,iVBORw0KGgoAAAANSUhEUgAAAMgAAABBCAYAAACU5+uOAAAAAXNSR0IArs4c6QAAAARnQU1BAACxjwv8YQUAAAAJcEhZcwAADsMAAA7DAcdvqGQAAAUySURBVHhe7d2/LzRBGAfwed9KROJHp+IPkNBIdFQkEgkKGkGQKO9foJKoJCoJIToKR4SIiqjQ0GmEaHR+hOjE65l35s3uvrOze7d7Zubm+0k2uzuRs8+8vjuze3f7/vr6xgBA6bdYA4ACAgKggYAAaCAgABoICIAGAgKggYAAaCAgABoICIAGAgKggYAAaCAgABoICIAGAgKggYAAaCAgABoICIDGf98onJubY6enp2Lvr7e3N/b5+cmurq5ES3oNDQ2so6ND7DHW2trKF6mnp0dsMVZfXx/62Z/iY81EVff7+zurq6vj2y8vL2XVn0W0r6Kor6h/VaL9HtXS0qJ9bSUKiHR3d0dhsWb5Lubr+4/pa319XRxh/nysmdhWt6klqb9DAZmYmFC+iOmlu7tbHGH+fKyZ2Fq3qSWuv0NTLBr65ZBLw9Hk5CTfpqE2blgLTheC7u/v+RKHhjo5HO7u7vI1kb+Lhva9vT3eRvvPz898O28+1kzKqVuHaqOlFPS7sk7hglMu2qbXS3rdkvqbx0SgFFETLZU+g6VRKBT+Hc/3wYvWfPlYM7GtblOS+tvqu1jBM1nWM40rfKzZpKT+DgWE7mBIwW1TaCiUjo6OxFa+fKyZ2Fa3KUn9HQpIW1ub2GL/bvWZFEx3TU2N2MqXjzUT2+o2Jam/QwEp9SLrJ52cnIgttYWFBdbX1yf20nO55uPjY9bV1cVub29FS3o2122Kqr+r5p305eVl9vDwIPb8sLa2xs7Pz1ljY6NogbyFAhJ3+9J2W1tb7PHxkY2Pj4uW9Fyt+enpiW1vb7Pe3l7W1NQkWtNzte6f5swIEv1IRNDOzg5fz87O8nW10NVM4SBTU1N8Ddmp+tv5KRadSQ8PD8s+k7pqY2ODX1yPjo6KFqgE5wNCZ1K6TTk0NCRaqh9dlNO1R39/v2iBSnEmIO3t7WIrrFgs8jPpyMiIaKkecTXL6dX09DRfQz5U/R0bkOD9YRuojoemV3Srk86keUyvXKiZbG5usubmZj6tzINtdZui6ofYgOg+V2+LlZUVvh4eHubrrFyo+fLykt3c3LCBgQHRkp0LdZvizBRLlW46k1bzhaqq5tXVVb6emZnha8hPSSOIbaJnObpQpTNpNV+oqs7s+/v7fHrV2dkpWiAvqv4OBSTpow02kR+vyHqh6lLNhN4QHRsbE3vlc61uU5wZQaLoAvXi4iK3C1VXUM2Li4tiDyrN2RGE5DHN8LFmghEkHWdHEICfEApI8BtVvtwb97Fm4mvdpQoF5PX1VWzZd29c9zCELHysmdhctymq/nZmilXJPxZb+VizSU4HBMCEUEDkoxlp+fj4EK3m0GM55fEEpwR58rFmYlvdpiT1dygg9IQHGmZoqa2tFa3m0AHL46nUI3B8rJnYVrcpSf0dCkjwYm1+fp4/dY6+ZXV2diZazYn76HdWPtZM4uo+ODjgfyw+UvV37KNH06Dbg9E7ILQvbxvSWarUsyB9+Uk+hkYmmxQKBba0tMS38+RjzaTUupOk+Y67nMqolNNv5Sqpv/nzFYXg4yhtW4rFojjKfPlYM7G5blOLqr9DIwglmJJMgommbVooadRWyYvHOPRg4Uq8oeVjzURXt/ydwY+jUPv19bXYq06q/v7vP9BJK/pZnuBQFUcOscEpiYp8bfmPSD8/ODjI20zyseY4aWon0T4rV7D/aE37WaTt77IDAuADvFEIoIGAAGggIAAaCAiABgICoIGAAGggIAAaCAiABgICoIGAAGggIAAaCAhALMb+AAnJ3n0YZFDxAAAAAElFTkSuQmCC;" vertex="1" parent="7026571954dc6520-1">
          <mxGeometry x="420" y="695" width="200" height="65" as="geometry" />
        </mxCell>
        <mxCell id="w-uies3jlZHsXsL9M4cH-30" value="" style="rounded=0;whiteSpace=wrap;html=1;fillColor=none;" vertex="1" parent="7026571954dc6520-1">
          <mxGeometry x="330" y="270" width="660" height="520" as="geometry" />
        </mxCell>
        <mxCell id="mRazqspsC4Ma7sNljstP-1" value="" style="rounded=0;whiteSpace=wrap;html=1;fillColor=none;" parent="7026571954dc6520-1" vertex="1">
          <mxGeometry x="337.5" y="840" width="660" height="680" as="geometry" />
        </mxCell>
        <mxCell id="w-uies3jlZHsXsL9M4cH-52" style="edgeStyle=orthogonalEdgeStyle;rounded=0;orthogonalLoop=1;jettySize=auto;html=1;fillColor=#e1d5e7;strokeColor=#9673a6;" edge="1" parent="7026571954dc6520-1" source="w-uies3jlZHsXsL9M4cH-51" target="mRazqspsC4Ma7sNljstP-1">
          <mxGeometry relative="1" as="geometry" />
        </mxCell>
        <mxCell id="w-uies3jlZHsXsL9M4cH-51" value="Do not display if the member does not have shelter" style="text;html=1;strokeColor=none;fillColor=none;align=center;verticalAlign=middle;whiteSpace=wrap;rounded=0;fontColor=#EA2EFF;fontSize=17;" vertex="1" parent="7026571954dc6520-1">
          <mxGeometry x="40" y="1050" width="200" height="70" as="geometry" />
        </mxCell>
        <mxCell id="EMS-jT7dY6hnE4moFdB5-114" value="" style="rounded=0;whiteSpace=wrap;html=1;fillColor=none;" parent="1" vertex="1">
          <mxGeometry x="29.37" y="80" width="243.75" height="250" as="geometry" />
        </mxCell>
        <mxCell id="EMS-jT7dY6hnE4moFdB5-119" style="edgeStyle=orthogonalEdgeStyle;rounded=0;orthogonalLoop=1;jettySize=auto;html=1;fillColor=#e1d5e7;strokeColor=#9673a6;" parent="1" source="EMS-jT7dY6hnE4moFdB5-117" target="EMS-jT7dY6hnE4moFdB5-114" edge="1">
          <mxGeometry relative="1" as="geometry" />
        </mxCell>
        <mxCell id="7026571954dc6520-2" value="Page 1" style="strokeWidth=1;shadow=0;dashed=0;align=center;html=1;shape=mxgraph.mockup.containers.anchor;fontSize=17;fontColor=#666666;align=left;" parent="1" vertex="1">
          <mxGeometry x="70" y="-188" width="110" height="26" as="geometry" />
        </mxCell>
        <mxCell id="7026571954dc6520-3" value="https://www.default.com" style="strokeWidth=1;shadow=0;dashed=0;align=center;html=1;shape=mxgraph.mockup.containers.anchor;rSize=0;fontSize=17;fontColor=#666666;align=left;" parent="1" vertex="1">
          <mxGeometry x="140" y="-140" width="250" height="26" as="geometry" />
        </mxCell>
        <mxCell id="EMS-jT7dY6hnE4moFdB5-105" value="" style="verticalLabelPosition=bottom;shadow=0;dashed=0;align=center;html=1;verticalAlign=top;strokeWidth=1;shape=mxgraph.mockup.graphics.simpleIcon;strokeColor=#999999;fillColor=#ffffff;rounded=0;labelBackgroundColor=none;fontFamily=Verdana;fontSize=12;fontColor=#000000;" parent="1" vertex="1">
          <mxGeometry x="41.25" y="180" width="40" height="40" as="geometry" />
        </mxCell>
        <mxCell id="EMS-jT7dY6hnE4moFdB5-106" value="Requested (5)" style="text;html=1;align=center;verticalAlign=middle;resizable=0;points=[];autosize=1;strokeColor=none;fillColor=none;" parent="1" vertex="1">
          <mxGeometry x="121.25" y="105" width="100" height="30" as="geometry" />
        </mxCell>
        <mxCell id="EMS-jT7dY6hnE4moFdB5-107" value="Shelters" style="text;html=1;align=center;verticalAlign=middle;resizable=0;points=[];autosize=1;strokeColor=none;fillColor=none;" parent="1" vertex="1">
          <mxGeometry x="116.25" y="185" width="70" height="30" as="geometry" />
        </mxCell>
        <mxCell id="EMS-jT7dY6hnE4moFdB5-108" value="Members" style="text;html=1;align=center;verticalAlign=middle;resizable=0;points=[];autosize=1;strokeColor=none;fillColor=none;" parent="1" vertex="1">
          <mxGeometry x="116.25" y="265" width="70" height="30" as="geometry" />
        </mxCell>
        <mxCell id="EMS-jT7dY6hnE4moFdB5-110" value="" style="verticalLabelPosition=bottom;shadow=0;dashed=0;align=center;html=1;verticalAlign=top;strokeWidth=1;shape=mxgraph.mockup.graphics.simpleIcon;strokeColor=#999999;fillColor=#ffffff;rounded=0;labelBackgroundColor=none;fontFamily=Verdana;fontSize=12;fontColor=#000000;" parent="1" vertex="1">
          <mxGeometry x="41.25" y="260" width="40" height="40" as="geometry" />
        </mxCell>
        <mxCell id="EMS-jT7dY6hnE4moFdB5-111" value="" style="verticalLabelPosition=bottom;shadow=0;dashed=0;align=center;html=1;verticalAlign=top;strokeWidth=1;shape=mxgraph.mockup.graphics.simpleIcon;strokeColor=#999999;fillColor=#ffffff;rounded=0;labelBackgroundColor=none;fontFamily=Verdana;fontSize=12;fontColor=#000000;" parent="1" vertex="1">
          <mxGeometry x="41.25" y="100" width="40" height="40" as="geometry" />
        </mxCell>
      </root>
    </mxGraphModel>
  </diagram>
</mxfile>
